 
<svg viewBox="0 0 2167 383" xmlns="http://www.w3.org/2000/svg" xmlns:xlink="http://www.w3.org/1999/xlink">  
    <style type="text/css">
        svg {
            dominant-baseline: hanging;
        }

        @keyframes anim {
            0% {
                transform: rotate(45deg) translateY(-400%);
            }
            to {
                transform: rotate(45deg) translateY(-925%);
            }
        }

        #anim {
            animation: anim infinite linear 60s; 
        }
    </style>
    <defs>  
        <mask id="mask" x="0" y="0">  
            <path d="M 640.909 102.911 L 586.727 102.911 Q 583.818 77.093 562.727 62.82 Q 541.636 48.548 509.636 48.548 Q 487.935 48.548 471.781 54.992 A 74.262 74.262 0 0 0 470 55.729 A 71.207 71.207 0 0 0 455.976 63.621 A 54.94 54.94 0 0 0 444.091 75.366 Q 434.909 87.82 434.909 103.639 A 47.148 47.148 0 0 0 436.287 115.283 A 37.358 37.358 0 0 0 441.182 126.548 A 53.071 53.071 0 0 0 457.407 142.436 A 60.853 60.853 0 0 0 457.727 142.639 Q 468 149.093 479.818 153.366 A 248.87 248.87 0 0 0 494.236 158.103 A 210.585 210.585 0 0 0 502.545 160.366 L 538.909 169.82 A 267.69 267.69 0 0 1 566.148 178.104 A 308.888 308.888 0 0 1 575.455 181.639 A 146.501 146.501 0 0 1 610.182 201.275 A 95.102 95.102 0 0 1 636.091 231.457 A 77.809 77.809 0 0 1 644.301 254.985 A 107.39 107.39 0 0 1 646 274.548 A 104.571 104.571 0 0 1 640.035 310.258 A 95.556 95.556 0 0 1 629.727 330.729 A 103.023 103.023 0 0 1 599.03 360.526 A 133.562 133.562 0 0 1 582.636 369.457 Q 554.226 382.531 514.922 383.552 A 259.46 259.46 0 0 1 508.182 383.639 Q 468.569 383.639 439.071 371.729 A 134.754 134.754 0 0 1 435.818 370.366 A 121.207 121.207 0 0 1 406.561 352.656 A 103.351 103.351 0 0 1 388 332.639 A 103.948 103.948 0 0 1 370.526 289.318 A 131.516 131.516 0 0 1 368.909 274.548 L 425.273 274.548 A 65.586 65.586 0 0 0 428.79 291.437 A 52.138 52.138 0 0 0 438.455 308.093 Q 450 321.457 468.091 327.911 A 111.461 111.461 0 0 0 495.606 333.826 A 135.438 135.438 0 0 0 507.818 334.366 A 128.653 128.653 0 0 0 530.341 332.479 A 99.228 99.228 0 0 0 550.273 326.82 A 80.055 80.055 0 0 0 566.471 318.103 A 63.031 63.031 0 0 0 579.636 305.729 A 49.494 49.494 0 0 0 590.361 274.569 A 61.272 61.272 0 0 0 590.364 274.002 A 47.8 47.8 0 0 0 588.848 261.66 A 35.737 35.737 0 0 0 581 246.911 A 61.864 61.864 0 0 0 568.497 236.265 A 85.549 85.549 0 0 0 555.727 229.457 A 222.959 222.959 0 0 0 536.819 222.295 A 290.411 290.411 0 0 0 519.818 217.275 L 475.818 205.275 Q 431.091 193.093 405 169.457 A 78.159 78.159 0 0 1 379.317 116.4 A 108.052 108.052 0 0 1 378.909 106.911 Q 378.909 74.729 396.364 50.729 A 112.103 112.103 0 0 1 433.752 18.274 A 137.249 137.249 0 0 1 443.636 13.366 A 152.496 152.496 0 0 1 488.246 1.307 A 191.592 191.592 0 0 1 510.909 0.002 A 183.523 183.523 0 0 1 545.477 3.116 A 140.917 140.917 0 0 1 577.727 13.275 A 123.041 123.041 0 0 1 605.776 30.755 A 104.494 104.494 0 0 1 623.455 49.729 A 92.551 92.551 0 0 1 640.909 102.911 Z M 1309.455 377.457 L 1253.273 377.457 L 1253.273 5.093 L 1386 5.093 A 207.919 207.919 0 0 1 1416.396 7.19 Q 1432.632 9.592 1446.165 14.747 A 110.862 110.862 0 0 1 1457.909 20.002 A 105.424 105.424 0 0 1 1486.179 41.028 A 94.79 94.79 0 0 1 1500.727 61.184 Q 1514.909 87.457 1514.909 121.82 A 138.671 138.671 0 0 1 1511.341 153.934 A 110.687 110.687 0 0 1 1500.636 181.911 A 95.494 95.494 0 0 1 1463.82 218.904 A 117.903 117.903 0 0 1 1457.727 222.184 A 125.329 125.329 0 0 1 1428.218 232.374 Q 1414.509 235.374 1398.603 236.217 A 241.43 241.43 0 0 1 1385.818 236.548 L 1285.273 236.548 L 1285.273 188.184 L 1380.727 188.184 A 156.841 156.841 0 0 0 1398.285 187.26 Q 1413.906 185.496 1425.182 180.366 Q 1442.364 172.548 1450.364 157.639 A 65.128 65.128 0 0 0 1456.832 138.967 Q 1458.34 131.093 1458.363 122.106 A 108.93 108.93 0 0 0 1458.364 121.82 A 92.492 92.492 0 0 0 1456.702 103.864 A 68.493 68.493 0 0 0 1450.273 85.275 A 52.689 52.689 0 0 0 1429.185 63.746 A 66.52 66.52 0 0 0 1425 61.548 A 74.293 74.293 0 0 0 1409.284 56.191 Q 1401.504 54.414 1392.332 53.72 A 163.58 163.58 0 0 0 1380 53.275 L 1309.455 53.275 L 1309.455 377.457 Z M 165.091 72.729 L 59.636 377.457 L 0 377.457 L 134 5.093 L 198.909 5.093 L 332.909 377.457 L 273.273 377.457 L 168 72.729 L 165.091 72.729 Z M 1720.364 72.729 L 1614.909 377.457 L 1555.273 377.457 L 1689.273 5.093 L 1754.182 5.093 L 1888.182 377.457 L 1828.545 377.457 L 1723.273 72.729 L 1720.364 72.729 Z M 1017.636 53.457 L 901.636 53.457 L 901.636 5.093 L 1189.818 5.093 L 1189.818 53.457 L 1073.636 53.457 L 1073.636 377.457 L 1017.636 377.457 L 1017.636 53.457 Z M 2166.727 377.457 L 1941.818 377.457 L 1941.818 5.093 L 1998 5.093 L 1998 329.093 L 2166.727 329.093 L 2166.727 377.457 Z M 1374.909 209.457 L 1437.091 209.457 L 1529.091 377.457 L 1465.091 377.457 L 1374.909 209.457 Z M 69.636 278.911 L 69.636 231.639 L 263.091 231.639 L 263.091 278.911 L 69.636 278.911 Z M 1624.909 278.911 L 1624.909 231.639 L 1818.364 231.639 L 1818.364 278.911 L 1624.909 278.911 Z M 708.182 196.548 L 873.273 196.548 L 873.273 243.639 L 708.182 243.639 L 708.182 196.548 Z" fill="#fff" vector-effect="non-scaling-stroke"/>
        </mask>  
    </defs>
    <g mask="url(#mask)">
        <g id="anim">
            <rect width="1000%" height="100%" fill="#fb4934"  />
            <rect width="1000%" height="100%" y="75%" fill="#fe8019"  />
            <rect width="1000%" height="100%" y="150%" fill="#fabd2f"  />
            <rect width="1000%" height="100%" y="225%" fill="#b8bb26"  />
            <rect width="1000%" height="100%" y="300%" fill="#8ec07c"  />
            <rect width="1000%" height="100%" y="375%" fill="#83a598"  />
            <rect width="1000%" height="100%" y="450%" fill="#d3869b"  />

            <rect width="1000%" height="100%" y="525%" fill="#fb4934"  />
            <rect width="1000%" height="100%" y="600%" fill="#fe8019"  />
            <rect width="1000%" height="100%" y="675%" fill="#fabd2f"  />
            <rect width="1000%" height="100%" y="750%" fill="#b8bb26"  />
            <rect width="1000%" height="100%" y="825%" fill="#8ec07c"  />
            <rect width="1000%" height="100%" y="900%" fill="#83a598"  />
            <rect width="1000%" height="100%" y="975%" fill="#d3869b"  />
        </g>
    </g>
</svg>